<svg id="Layer_1" data-name="Layer 1" xmlns="http://www.w3.org/2000/svg" viewBox="10 13 70 70"><defs><style>.cls-1{fill:#1a1818;}.cls-2{fill:#ed1b31;}</style></defs><g id="Group_406" data-name="Group 406"><g id="Rectangle_231" data-name="Rectangle 231"><path class="cls-1" d="M73,44.16H49.93a1.23,1.23,0,0,1-1.23-1.22v-23a1.23,1.23,0,0,1,1.23-1.23H73a1.22,1.22,0,0,1,1.22,1.23v23A1.22,1.22,0,0,1,73,44.16ZM51.15,41.71h20.6V21.11H51.15Z"/></g><g id="Rectangle_232" data-name="Rectangle 232"><path class="cls-2" d="M39.64,76.77h-23a1.22,1.22,0,0,1-1.22-1.22V19.89a1.23,1.23,0,0,1,1.22-1.23H39.64a1.23,1.23,0,0,1,1.23,1.23V75.55A1.23,1.23,0,0,1,39.64,76.77ZM17.82,74.32h20.6V21.11H17.82Z"/></g><g id="Rectangle_233" data-name="Rectangle 233"><path class="cls-1" d="M73,76.77H49.93a1.22,1.22,0,0,1-1.23-1.22v-23a1.23,1.23,0,0,1,1.23-1.23H73A1.22,1.22,0,0,1,74.2,52.5v23A1.21,1.21,0,0,1,73,76.77ZM51.15,74.32h20.6V53.73H51.15Z"/></g></g></svg>
